PathFileType	4	(X/Y/Z)	/Users/itak/Documents/Research/Walk-IL/dataset/trc/00543_00009.trc
DataRate	CameraRate	NumFrames	NumMarkers	Units	OrigDataRate	OrigDataStartFrame	OrigNumFrames
100.000000	100.000000	4	53	mm	100.000000	370	741
Frame#	Time	RPSI			LPSI			L3			STRN			T10			C7			CLAV			RBAK			LBAK			LSHO			LUPA			LAEL			LAOL			LWTS			LWPS			LFRA			LIFD			LHPS			LHTS			RSHO			RUPA			RAEL			RAOL			RWTS			RWPS			RFRA			RIFD			RHTS			RHPS			RBHD			LFHD			RFHD			LBHD			LHIP			RHIP			RASI			LASI			LKNE			LTHI			LANK			LTIP			LTOE			LMT1			LMT5			LHEE			RKNE			RTHI			RANK			RTIP			RTOE			RMT1			RMT5			RHEE			
		X1	Y1	Z1	X2	Y2	Z2	X3	Y3	Z3	X4	Y4	Z4	X5	Y5	Z5	X6	Y6	Z6	X7	Y7	Z7	X8	Y8	Z8	X9	Y9	Z9	X10	Y10	Z10	X11	Y11	Z11	X12	Y12	Z12	X13	Y13	Z13	X14	Y14	Z14	X15	Y15	Z15	X16	Y16	Z16	X17	Y17	Z17	X18	Y18	Z18	X19	Y19	Z19	X20	Y20	Z20	X21	Y21	Z21	X22	Y22	Z22	X23	Y23	Z23	X24	Y24	Z24	X25	Y25	Z25	X26	Y26	Z26	X27	Y27	Z27	X28	Y28	Z28	X29	Y29	Z29	X30	Y30	Z30	X31	Y31	Z31	X32	Y32	Z32	X33	Y33	Z33	X34	Y34	Z34	X35	Y35	Z35	X36	Y36	Z36	X37	Y37	Z37	X38	Y38	Z38	X39	Y39	Z39	X40	Y40	Z40	X41	Y41	Z41	X42	Y42	Z42	X43	Y43	Z43	X44	Y44	Z44	X45	Y45	Z45	X46	Y46	Z46	X47	Y47	Z47	X48	Y48	Z48	X49	Y49	Z49	X50	Y50	Z50	X51	Y51	Z51	X52	Y52	Z52	X53	Y53	Z53	

371	3.7	-103.9047470092773	1016.769409179688	230.1875152587891	-92.52871704101562	1019.8359375	97.09256744384766	-93.77120208740234	1114.891479492188	160.9334106445312	144.4368286132812	1304.993896484375	166.0269927978516	-103.8030090332031	1240.226196289062	159.4762268066406	-55.83557891845703	1513.693725585938	175.4946594238281	126.3556671142578	1418.262573242188	166.6104888916016	-122.8284378051758	1388.904418945312	262.7423095703125	-88.08963012695312	1461.330688476562	81.03224945068359	14.49239540100098	1490.056274414062	4.25868034362793	17.50834083557129	1367.549560546875	-81.78923797607422	62.94578552246094	1148.3642578125	-108.0197448730469	-29.81905364990234	1129.793579101562	-70.45986175537109	181.9356079101562	919.9719848632812	-52.48176193237305	149.2650146484375	891.7901611328125	-128.2174987792969	97.29994964599609	1065.835815429688	-112.898193359375	207.5640563964844	752.0643920898438	-56.15888214111328	166.6500701904297	833.9218139648438	-119.369255065918	212.5603179931641	847.1563720703125	-70.30242919921875	6.880286693572998	1483.161499023438	331.0062561035156	-10.42614364624023	1420.11376953125	400.4877014160156	-18.10666656494141	1132.679931640625	452.427978515625	-72.59774780273438	1113.243286132812	425.0901184082031	129.6215209960938	921.5337524414062	421.6383972167969	84.46489715576172	898.7327880859375	486.1115417480469	-4.686492443084717	1078.175659179688	461.1478271484375	154.9784851074219	749.3236694335938	431.8635864257812	163.2339172363281	832.4974365234375	438.9719848632812	105.1705474853516	825.5946044921875	484.8409729003906	2.959874868392944	1681.544677734375	247.1737976074219	153.3216400146484	1724.526733398438	110.16552734375	139.8741455078125	1716.393676757812	253.7200164794922	26.52388191223145	1690.007934570312	83.85932159423828	46.31972503662109	946.5701904296875	-25.52817726135254	6.452973365783691	945.63818359375	361.8869018554688	99.04364013671875	973.4976806640625	310.8009948730469	118.486946105957	970.5663452148438	35.3980598449707	100.0001983642578	500.4844055175781	43.17820358276367	87.89566040039062	665.3867797851562	2.444548606872559	60.25914001464844	29.24751281738281	65.89209747314453	60.36182022094727	250.5110931396484	46.78468322753906	264.4441528320312	41.51037216186523	142.5027465820312	189.9934539794922	45.57620620727539	170.75732421875	182.6703033447266	34.70115661621094	61.60752105712891	-12.9664888381958	34.2218132019043	112.3921279907227	10.76830959320068	500.2271118164062	357.45361328125	42.49897766113281	791.6610107421875	366.7954711914062	-337.6106567382812	158.4733123779297	349.0835571289062	-66.33965301513672	370.8561706542969	349.9329528808594	-161.9192657470703	39.73675537109375	317.9447937011719	-210.3682098388672	73.49143981933594	274.0494079589844	-241.0822601318359	73.78022003173828	375.3059692382812	-380.1780090332031	188.1867218017578	289.413330078125	
372	3.71	-100.1689605712891	1016.665954589844	228.9627685546875	-88.4903564453125	1019.838256835938	95.84867095947266	-89.92063140869141	1114.850219726562	159.4454650878906	148.2781372070312	1305.246337890625	164.8056793212891	-99.9949951171875	1240.188110351562	157.8556365966797	-52.25251770019531	1513.74462890625	173.6643218994141	130.0626373291016	1418.4755859375	165.3294067382812	-119.2800827026367	1388.8876953125	260.7869567871094	-84.17149353027344	1461.275146484375	79.09889984130859	18.61270332336426	1490.113403320312	2.674546718597412	22.86635780334473	1367.66748046875	-83.32657623291016	70.91455841064453	1149.065185546875	-109.6939544677734	-21.96573638916016	1129.496215820312	-72.98542785644531	191.3686981201172	921.4755859375	-53.85846710205078	159.7127380371094	893.373046875	-130.002685546875	106.0878143310547	1066.857177734375	-114.5309143066406	218.4096984863281	753.810546875	-57.93190383911133	177.4423065185547	835.5939331054688	-121.2388381958008	222.7884063720703	848.998291015625	-71.68770599365234	10.11564636230469	1483.363525390625	329.3310546875	-7.214362621307373	1420.248046875	398.7959594726562	-13.98320198059082	1132.836181640625	450.6668090820312	-68.30612182617188	1113.130981445312	423.3296813964844	135.4704895019531	922.9922485351562	419.4195861816406	90.52213287353516	899.6693115234375	483.8956298828125	-0.09337744861841202	1078.348510742188	459.2607727050781	162.1929321289062	750.9887084960938	429.1312561035156	169.8793640136719	834.221435546875	436.5448913574219	111.8794860839844	826.7301635742188	482.464599609375	6.374369144439697	1681.651733398438	245.6467437744141	156.8551788330078	1724.8994140625	108.8435134887695	143.2551116943359	1716.704956054688	252.3926239013672	30.12844657897949	1690.208984375	82.38116455078125	50.41898727416992	946.5037231445312	-26.72809410095215	10.46206855773926	945.6921997070312	360.6746520996094	102.9555816650391	973.8991088867188	309.6134948730469	122.513313293457	970.5089721679688	34.21415328979492	101.9788589477539	500.2661743164062	42.62733459472656	90.82021331787109	665.2135009765625	1.958149194717407	60.21967315673828	29.17819213867188	65.92316436767578	61.22563171386719	250.4043884277344	46.41240692138672	264.4552307128906	41.49299240112305	142.5103454589844	189.9892578125	45.56748580932617	170.8170776367188	182.6798095703125	34.69518661499023	61.62665176391602	-13.01246738433838	34.24351119995117	112.3321990966797	20.68315696716309	500.0713500976562	356.5798950195312	48.36064529418945	791.83837890625	365.4489135742188	-330.5665283203125	161.1820678710938	349.0731506347656	-57.39083099365234	371.13720703125	349.0137329101562	-154.5650024414062	41.59051895141602	318.5570373535156	-203.3035125732422	75.39173889160156	274.6705932617188	-234.0179748535156	76.55132293701172	375.8746032714844	-373.2839965820312	190.3876342773438	289.2643432617188	
373	3.72	-96.45668792724609	1016.544494628906	227.8116760253906	-84.55015563964844	1019.805114746094	94.70204925537109	-86.21416473388672	1114.804321289062	158.0028381347656	152.0281677246094	1305.483276367188	163.6800994873047	-96.28704071044922	1240.1376953125	156.3173065185547	-48.73997116088867	1513.770385742188	171.8707427978516	133.703857421875	1418.671020507812	164.1234283447266	-115.8319091796875	1388.856689453125	258.8723449707031	-80.31665802001953	1461.199462890625	77.20852661132812	22.69375610351562	1490.13623046875	1.154844760894775	28.19851493835449	1367.747924804688	-84.77972412109375	78.79093933105469	1149.753295898438	-111.2423248291016	-14.17950534820557	1129.2138671875	-75.37819671630859	200.6224365234375	922.9118041992188	-55.18277740478516	169.9466094970703	894.9361572265625	-131.7343902587891	114.7338180541992	1067.854248046875	-116.0486373901367	229.0224304199219	755.4852905273438	-59.7161750793457	188.0093994140625	837.2366943359375	-123.0497055053711	232.7908935546875	850.7723388671875	-73.03663635253906	13.23417663574219	1483.56298828125	327.7151794433594	-4.12821102142334	1420.390625	397.1554565429688	-10.01748085021973	1133.010009765625	448.9822692871094	-64.15602111816406	1113.02978515625	421.6405029296875	141.1643524169922	924.4699096679688	417.2691040039062	96.42034149169922	900.626953125	481.7518920898438	4.338260173797607	1078.536743164062	457.4523315429688	169.2320098876953	752.6864013671875	426.4671325683594	176.3827362060547	835.97900390625	434.1784973144531	118.4303817749023	827.89794921875	480.1699829101562	9.728487968444824	1681.743408203125	244.1736297607422	160.3280181884766	1725.255126953125	107.5750885009766	146.5730285644531	1716.999877929688	251.1216278076172	33.68880081176758	1690.3984375	80.94562530517578	54.43384170532227	946.3817749023438	-27.84277534484863	14.51324367523193	945.7697143554688	359.5316467285156	106.8515930175781	974.3007202148438	308.4558715820312	126.4405364990234	970.4480590820312	33.0495719909668	103.9213104248047	500.0527954101562	42.12764739990234	93.60618591308594	665.0459594726562	1.604650259017944	60.17996978759766	29.11495780944824	65.95986175537109	62.09344863891602	250.3118743896484	46.05628204345703	264.466552734375	41.47819900512695	142.5175933837891	189.9896087646484	45.55710983276367	170.8685913085938	182.6874237060547	34.69026184082031	61.64316558837891	-13.06352043151855	34.27339935302734	112.2844390869141	30.29453468322754	500.0697021484375	355.6137390136719	54.19508361816406	792.060791015625	364.1606750488281	-322.78125	162.9755706787109	349.0751342773438	-48.470458984375	371.4927673339844	348.1143188476562	-145.9676971435547	43.63779449462891	319.2612915039062	-195.0990142822266	77.11514282226562	275.3369445800781	-225.7579498291016	79.02723693847656	376.4786682128906	-365.7825927734375	191.4667205810547	289.1259460449219	
374	3.73	-92.75070190429688	1016.421630859375	226.7413635253906	-80.7060546875	1019.749145507812	93.65684509277344	-82.647705078125	1114.763061523438	156.5986938476562	155.6959533691406	1305.711791992188	162.6369323730469	-92.66151428222656	1240.079833984375	154.8543548583984	-45.29781341552734	1513.7763671875	170.1176147460938	137.2779846191406	1418.859008789062	162.9906921386719	-112.4705505371094	1388.815307617188	256.999755859375	-76.52352142333984	1461.111328125	75.36234283447266	26.72632598876953	1490.136108398438	-0.2993741035461426	33.48998260498047	1367.804077148438	-86.15034484863281	86.55753326416016	1150.43798828125	-112.6644973754883	-6.478369235992432	1128.953125	-77.63517761230469	209.6876068115234	924.2940673828125	-56.44648361206055	179.9576721191406	896.4843139648438	-133.4051818847656	123.2213134765625	1068.835815429688	-117.4487457275391	239.3919067382812	757.1005859375	-61.49380874633789	198.3438415527344	838.859130859375	-124.7962646484375	242.5568389892578	852.4869995117188	-74.33729553222656	16.24504852294922	1483.764404296875	326.1601257324219	-1.161123871803284	1420.546142578125	395.5668029785156	-6.214429378509521	1133.203979492188	447.372314453125	-60.15460205078125	1112.94482421875	420.0161437988281	146.6869964599609	925.9656372070312	415.2034606933594	102.1436157226562	901.6067504882812	479.688720703125	8.588753700256348	1078.74609375	455.7265625	176.0861053466797	754.4169311523438	423.8906555175781	182.7272186279297	837.77294921875	431.8872985839844	124.8006286621094	829.0971069335938	477.966064453125	13.02614593505859	1681.82568359375	242.7588195800781	163.7387847900391	1725.601928710938	106.3618927001953	149.8307342529297	1717.2841796875	249.9081726074219	37.20230102539062	1690.586059570312	79.55665588378906	58.34559631347656	946.2011108398438	-28.88848114013672	18.61301040649414	945.890869140625	358.4622497558594	110.7416839599609	974.7108764648438	307.3137817382812	130.2644195556641	970.3857421875	31.89677810668945	105.8364028930664	499.8457946777344	41.67490386962891	96.28480529785156	664.8731079101562	1.341863512992859	60.15390396118164	29.07204437255859	65.99037170410156	62.96200180053711	250.2336273193359	45.72776031494141	264.4784545898438	41.46526336669922	142.5259704589844	189.9932708740234	45.5433235168457	170.9139556884766	182.6930389404297	34.68585968017578	61.65834045410156	-13.11934852600098	34.31656646728516	112.2483673095703	39.57560348510742	500.2215576171875	354.5709533691406	59.96908950805664	792.3518676757812	362.9497985839844	-314.2350463867188	163.8111572265625	349.1053466796875	-39.56979751586914	371.8965148925781	347.2538146972656	-136.1812896728516	45.7310791015625	320.0766296386719	-185.7412872314453	78.58238983154297	276.0704956054688	-216.3391723632812	81.12416839599609	377.11865234375	-357.6387329101562	191.3975372314453	289.0259399414062	
